<svg xmlns="http://www.w3.org/2000/svg" xmlns:xlink="http://www.w3.org/1999/xlink" width="420" zoomAndPan="magnify" viewBox="0 0 315 314.999992" height="420" preserveAspectRatio="xMidYMid meet" version="1.0"><defs><g/><clipPath id="73adcd5374"><path d="M 31 24 L 284 24 L 284 297.480469 L 31 297.480469 Z M 31 24 " clip-rule="nonzero"/></clipPath><clipPath id="23ebc0e438"><path d="M 109 17.8125 L 205 17.8125 L 205 113 L 109 113 Z M 109 17.8125 " clip-rule="nonzero"/></clipPath><clipPath id="eaeeb718ea"><path d="M 9.878906 102 L 305.136719 102 L 305.136719 225 L 9.878906 225 Z M 9.878906 102 " clip-rule="nonzero"/></clipPath></defs><g clip-path="url(#73adcd5374)"><path fill="#1f1a17" d="M 225.355469 248.351562 C 266.6875 205.429688 285.890625 149.203125 282.679688 84.007812 L 282.070312 71.515625 L 271.082031 65.335938 L 270.75 65.148438 C 260.597656 59.445312 249.929688 54.292969 239.101562 50.007812 C 228.492188 45.8125 217.710938 42.425781 206.785156 39.847656 C 200.039062 38.253906 193.289062 36.988281 186.542969 36.046875 C 178.6875 29.085938 168.367188 24.847656 157.089844 24.847656 C 145.839844 24.847656 135.542969 29.066406 127.695312 36 C 97.871094 40.125 69.105469 50.617188 42.960938 65.421875 L 32.03125 71.609375 L 31.445312 84.097656 L 31.441406 84.234375 C 30.867188 96.632812 31.179688 109.132812 32.355469 121.699219 C 33.523438 134.199219 35.519531 145.988281 38.316406 157.050781 C 53.265625 216.199219 93.242188 263.011719 146.4375 291.417969 L 157.136719 297.132812 L 167.78125 291.417969 L 167.894531 291.355469 C 178.867188 285.457031 189.203125 278.859375 198.90625 271.601562 C 208.199219 264.644531 217.28125 256.734375 225.355469 248.351562 " fill-opacity="1" fill-rule="evenodd"/></g><path fill="#ffffff" d="M 160.835938 280.707031 L 160.71875 280.769531 L 157.089844 282.71875 L 153.441406 280.769531 C 100.078125 252.253906 64.6875 208.925781 50.59375 153.113281 C 47.882812 142.382812 45.960938 131.101562 44.859375 119.289062 C 43.75 107.453125 43.472656 95.347656 44.042969 83.003906 L 44.050781 82.863281 L 44.25 78.605469 L 47.976562 76.492188 C 98.058594 48.113281 151.390625 39.410156 204.414062 51.949219 C 214.769531 54.398438 225.070312 57.640625 235.285156 61.683594 C 245.480469 65.71875 255.65625 70.578125 265.78125 76.269531 L 266.121094 76.460938 L 269.871094 78.570312 L 270.078125 82.828125 C 273.148438 145.253906 254.960938 198.894531 215.792969 239.589844 C 208.214844 247.46875 199.816406 254.867188 190.613281 261.757812 C 181.414062 268.648438 171.484375 274.972656 160.835938 280.707031 " fill-opacity="1" fill-rule="evenodd"/><path fill="#c3261b" d="M 157.066406 273.976562 C 231.148438 234.152344 266.464844 166.976562 262.347656 83.195312 C 192.34375 43.710938 119.074219 45.0625 51.777344 83.195312 C 47.703125 170.230469 85.652344 235.816406 157.066406 273.976562 " fill-opacity="1" fill-rule="evenodd"/><path fill="#c3261b" d="M 157.046875 265.191406 C 165.777344 260.304688 173.886719 255.046875 181.375 249.441406 C 189.855469 243.09375 197.628906 236.234375 204.683594 228.902344 C 239.863281 192.355469 256.636719 144.136719 254.792969 87.835938 C 246.453125 83.324219 238.054688 79.394531 229.613281 76.054688 C 220.03125 72.265625 210.457031 69.242188 200.910156 66.984375 C 153.066406 55.671875 104.863281 63.0625 59.34375 87.816406 C 59.015625 98.3125 59.300781 108.347656 60.195312 117.902344 C 61.207031 128.730469 63.003906 139.226562 65.566406 149.367188 C 78.234375 199.519531 109.679688 238.792969 157.046875 265.191406 " fill-opacity="1" fill-rule="evenodd"/><path fill="#c3261b" d="M 157.042969 255.207031 C 215.398438 220.835938 245.261719 163.667969 247.25 92.761719 C 218.632812 78.015625 189.222656 70.429688 157.042969 69.882812 C 157.042969 113.027344 157.042969 157.824219 157.042969 255.207031 " fill-opacity="1" fill-rule="evenodd"/><g clip-path="url(#23ebc0e438)"><path fill="#1f1a17" d="M 157.089844 17.875 C 183.171875 17.875 204.441406 39.144531 204.441406 65.226562 C 204.441406 91.304688 183.171875 112.574219 157.089844 112.574219 C 131.011719 112.574219 109.742188 91.304688 109.742188 65.226562 C 109.742188 39.144531 131.011719 17.875 157.089844 17.875 " fill-opacity="1" fill-rule="evenodd"/></g><path fill="#ffffff" d="M 129.355469 39.460938 C 136.066406 32.242188 145.546875 27.632812 156.070312 27.351562 L 156.070312 30.957031 C 152.339844 32.535156 148.488281 34.863281 144.574219 37.582031 C 139.5625 37.859375 134.46875 38.609375 129.355469 39.460938 M 120.726562 54.621094 C 122.203125 49.5625 124.714844 44.933594 128.019531 40.984375 C 133.234375 40.199219 138.460938 39.472656 143.765625 39.046875 C 144.5 42.335938 146.117188 45.949219 148.1875 49.734375 C 144.414062 54.945312 141.335938 60.875 138.375 66.921875 C 135.226562 66.648438 131.660156 66.652344 128.050781 67.328125 C 125.457031 63.210938 122.960938 59.015625 120.726562 54.621094 Z M 123.683594 83.054688 C 120.824219 77.738281 119.203125 71.664062 119.203125 65.226562 C 119.203125 62.246094 119.554688 59.34375 120.210938 56.5625 C 122.105469 60.429688 124.378906 64.195312 126.800781 67.925781 C 126.273438 71.679688 126.332031 76.722656 126.796875 81.773438 C 125.761719 82.21875 124.722656 82.640625 123.683594 83.054688 Z M 144.226562 100.851562 C 135.847656 97.8125 128.835938 91.890625 124.382812 84.304688 C 125.460938 83.859375 126.523438 83.398438 127.574219 82.910156 C 130.398438 85.15625 133.429688 86.753906 137.203125 88.648438 C 139.179688 92.808594 141.621094 96.851562 144.226562 100.851562 Z M 167.375 101.6875 C 164.105469 102.613281 160.65625 103.113281 157.09375 103.113281 C 153.335938 103.113281 149.710938 102.558594 146.28125 101.53125 C 143.660156 97.414062 141.113281 93.238281 138.8125 88.875 C 141.480469 86.8125 145.414062 84.75 147.640625 81.019531 C 146.019531 77.003906 142.667969 72.117188 139.550781 67.488281 C 142.457031 61.820312 145.472656 56.195312 149.003906 50.792969 C 153.566406 51.378906 158.960938 51.265625 164.765625 50.8125 C 168.292969 56.210938 171.300781 61.828125 174.207031 67.488281 C 171.089844 72.117188 167.730469 77.003906 166.113281 81.019531 C 168.339844 84.75 172.273438 86.8125 174.945312 88.875 C 172.613281 93.292969 170.03125 97.519531 167.375 101.6875 Z M 189.714844 84.445312 C 185.164062 92.132812 177.972656 98.085938 169.402344 101.050781 C 172.054688 96.984375 174.542969 92.878906 176.554688 88.648438 C 180.328125 86.753906 183.359375 85.15625 186.1875 82.914062 C 187.34375 83.449219 188.519531 83.957031 189.714844 84.445312 Z M 193.828125 55.972656 C 194.578125 58.9375 194.980469 62.035156 194.980469 65.226562 C 194.980469 71.722656 193.328125 77.84375 190.425781 83.195312 C 189.265625 82.738281 188.113281 82.265625 186.957031 81.773438 C 187.421875 76.722656 187.484375 71.679688 186.949219 67.925781 C 189.503906 64.007812 191.882812 60.046875 193.828125 55.972656 Z M 186.230469 41.054688 C 189.382812 44.851562 191.8125 49.265625 193.304688 54.089844 C 190.996094 58.675781 188.40625 63.042969 185.707031 67.328125 C 182.097656 66.652344 178.53125 66.648438 175.378906 66.921875 C 172.492188 61.023438 169.496094 55.234375 165.84375 50.113281 C 167.761719 47.03125 169.1875 43.234375 170.355469 39.074219 C 175.699219 39.519531 180.972656 40.265625 186.230469 41.054688 Z M 157.257812 27.339844 C 168.167969 27.386719 178.011719 32.082031 184.902344 39.546875 C 179.816406 38.695312 174.742188 37.929688 169.753906 37.613281 C 166.480469 35.148438 162.128906 32.84375 157.257812 30.617188 Z M 157.257812 27.339844 " fill-opacity="1" fill-rule="evenodd"/><path fill="#dddddd" d="M 129.355469 39.460938 C 135.832031 32.492188 144.898438 27.953125 154.984375 27.394531 C 148.898438 29.523438 143.53125 33.226562 139.394531 38.015625 C 136.070312 38.382812 132.71875 38.902344 129.355469 39.460938 M 120.726562 54.621094 C 122.203125 49.5625 124.714844 44.933594 128.019531 40.984375 C 131.367188 40.480469 134.726562 39.996094 138.097656 39.605469 C 133.355469 45.753906 130.53125 53.453125 130.53125 61.789062 C 130.53125 63.535156 130.65625 65.246094 130.894531 66.925781 C 129.957031 67.015625 129 67.148438 128.050781 67.328125 C 125.457031 63.210938 122.960938 59.015625 120.726562 54.621094 Z M 123.683594 83.054688 C 120.824219 77.738281 119.203125 71.664062 119.203125 65.226562 C 119.203125 62.246094 119.554688 59.34375 120.210938 56.5625 C 122.105469 60.429688 124.378906 64.195312 126.800781 67.925781 C 126.273438 71.679688 126.332031 76.722656 126.796875 81.773438 C 125.761719 82.21875 124.722656 82.640625 123.683594 83.054688 Z M 144.226562 100.851562 C 135.847656 97.8125 128.835938 91.890625 124.382812 84.304688 C 125.460938 83.859375 126.523438 83.398438 127.574219 82.910156 C 130.398438 85.15625 133.429688 86.753906 137.203125 88.648438 C 139.179688 92.808594 141.621094 96.851562 144.226562 100.851562 Z M 167.375 101.6875 C 164.105469 102.613281 160.65625 103.113281 157.09375 103.113281 C 153.335938 103.113281 149.710938 102.558594 146.28125 101.53125 C 143.660156 97.414062 141.113281 93.238281 138.8125 88.875 C 139.480469 88.359375 140.226562 87.84375 141.003906 87.304688 C 147.617188 94.03125 156.808594 98.210938 166.945312 98.210938 C 167.84375 98.210938 168.734375 98.175781 169.617188 98.109375 C 168.878906 99.308594 168.132812 100.5 167.375 101.6875 Z M 178.839844 96.207031 C 175.957031 98.238281 172.789062 99.878906 169.402344 101.050781 C 170.074219 100.015625 170.742188 98.976562 171.386719 97.933594 C 173.960938 97.617188 176.453125 97.035156 178.839844 96.207031 Z M 178.839844 96.207031 " fill-opacity="1" fill-rule="evenodd"/><path fill="#1f1a17" d="M 157.058594 239.171875 C 163.265625 235.613281 169.03125 231.777344 174.359375 227.691406 C 180.390625 223.066406 185.917969 218.066406 190.933594 212.722656 C 215.953125 186.085938 227.882812 164.234375 226.570312 123.199219 C 171.414062 117.464844 137.636719 120.402344 87.574219 123.183594 C 87.339844 130.835938 87.542969 124.851562 88.179688 131.816406 C 88.898438 139.710938 90.179688 147.359375 92 154.746094 C 101.007812 191.300781 123.375 219.929688 157.058594 239.171875 " fill-opacity="1" fill-rule="evenodd"/><g clip-path="url(#eaeeb718ea)"><path fill="#1f1a17" d="M 9.878906 224.082031 L 32.402344 118.542969 L 33.699219 112.652344 L 39.910156 111.265625 C 43.191406 110.53125 47.070312 109.824219 51.410156 109.152344 C 56.335938 108.390625 61.507812 107.722656 66.804688 107.144531 C 73.28125 106.433594 78.933594 105.894531 83.828125 105.496094 C 109.976562 103.386719 139.480469 102.464844 157.457031 102.457031 L 157.492188 102.457031 C 160.972656 102.460938 164.824219 102.496094 168.945312 102.566406 C 173.882812 102.648438 179.101562 102.78125 184.40625 102.953125 C 190.21875 103.144531 196 103.375 201.53125 103.640625 C 228.292969 104.933594 257.636719 107.367188 275.035156 111.261719 L 281.246094 112.652344 L 282.542969 118.542969 L 305.121094 224.308594 C 213.117188 173.023438 101.859375 173.722656 9.878906 224.082031 " fill-opacity="1" fill-rule="evenodd"/></g><path fill="#ffffff" d="M 24.222656 204.53125 L 42.199219 120.464844 C 69.402344 114.375 128.796875 111.929688 157.480469 111.917969 C 157.492188 111.917969 157.503906 111.917969 157.511719 111.917969 C 186.199219 111.929688 245.59375 114.375 272.796875 120.464844 C 278.785156 147.683594 284.78125 177.3125 290.769531 204.53125 C 219.6875 167.710938 95.367188 167.675781 24.222656 204.53125 " fill-opacity="1" fill-rule="evenodd"/><path fill="#1f1a17" d="M 96.332031 84.074219 C 136.824219 82.035156 177.3125 82.222656 217.800781 84.078125 L 223.019531 122.054688 C 170.101562 118.992188 144.046875 118.597656 91.132812 122.054688 C 92.863281 109.394531 94.597656 96.734375 96.332031 84.074219 " fill-opacity="1" fill-rule="evenodd"/><g fill="#000000" fill-opacity="1"><g transform="translate(45.636503, 178.944293)"><g><path d="M 12.765625 -33.609375 C 10.710938 -33.097656 8.960938 -32.125 7.515625 -30.6875 C 6.078125 -29.257812 5.0625 -27.570312 4.46875 -25.625 C 3.882812 -23.675781 3.847656 -21.671875 4.359375 -19.609375 C 4.878906 -17.546875 5.851562 -15.796875 7.28125 -14.359375 C 8.71875 -12.921875 10.410156 -11.90625 12.359375 -11.3125 C 14.304688 -10.726562 16.304688 -10.691406 18.359375 -11.203125 L 29.578125 -14.015625 L 27.921875 -20.6875 L 16.703125 -17.875 L 15.140625 -24.09375 L 32.578125 -28.453125 L 37.359375 -9.328125 L 19.921875 -4.96875 C 17.535156 -4.375 15.171875 -4.257812 12.828125 -4.625 C 10.492188 -5 8.320312 -5.789062 6.3125 -7 C 4.3125 -8.207031 2.597656 -9.753906 1.171875 -11.640625 C -0.253906 -13.535156 -1.269531 -15.675781 -1.875 -18.0625 C -2.46875 -20.457031 -2.578125 -22.816406 -2.203125 -25.140625 C -1.828125 -27.472656 -1.039062 -29.644531 0.15625 -31.65625 C 1.363281 -33.675781 2.910156 -35.394531 4.796875 -36.8125 C 6.691406 -38.226562 8.832031 -39.234375 11.21875 -39.828125 L 28.65625 -44.1875 L 30.203125 -37.96875 Z M 12.765625 -33.609375 "/></g></g></g><g fill="#000000" fill-opacity="1"><g transform="translate(84.403405, 169.265534)"><g><path d="M 13.984375 -38.3125 C 16.421875 -38.664062 18.78125 -38.539062 21.0625 -37.9375 C 23.34375 -37.34375 25.421875 -36.34375 27.296875 -34.9375 C 29.179688 -33.53125 30.738281 -31.816406 31.96875 -29.796875 C 33.195312 -27.785156 33.988281 -25.554688 34.34375 -23.109375 C 34.695312 -20.679688 34.566406 -18.320312 33.953125 -16.03125 C 33.335938 -13.738281 32.328125 -11.648438 30.921875 -9.765625 C 29.523438 -7.890625 27.816406 -6.335938 25.796875 -5.109375 C 23.773438 -3.890625 21.546875 -3.101562 19.109375 -2.75 C 16.671875 -2.40625 14.3125 -2.53125 12.03125 -3.125 C 9.75 -3.726562 7.664062 -4.734375 5.78125 -6.140625 C 3.894531 -7.554688 2.335938 -9.273438 1.109375 -11.296875 C -0.109375 -13.316406 -0.894531 -15.539062 -1.25 -17.96875 C -1.601562 -20.414062 -1.472656 -22.78125 -0.859375 -25.0625 C -0.253906 -27.351562 0.75 -29.4375 2.15625 -31.3125 C 3.5625 -33.1875 5.273438 -34.734375 7.296875 -35.953125 C 9.316406 -37.179688 11.546875 -37.96875 13.984375 -38.3125 Z M 18.1875 -9.109375 C 20.28125 -9.410156 22.117188 -10.203125 23.703125 -11.484375 C 25.285156 -12.765625 26.46875 -14.34375 27.25 -16.21875 C 28.039062 -18.09375 28.285156 -20.082031 27.984375 -22.1875 C 27.679688 -24.289062 26.882812 -26.128906 25.59375 -27.703125 C 24.3125 -29.285156 22.726562 -30.46875 20.84375 -31.25 C 18.96875 -32.03125 16.984375 -32.269531 14.890625 -31.96875 C 12.785156 -31.664062 10.945312 -30.875 9.375 -29.59375 C 7.800781 -28.3125 6.617188 -26.734375 5.828125 -24.859375 C 5.046875 -22.984375 4.804688 -20.992188 5.109375 -18.890625 C 5.410156 -16.785156 6.203125 -14.941406 7.484375 -13.359375 C 8.773438 -11.785156 10.351562 -10.609375 12.21875 -9.828125 C 14.09375 -9.046875 16.082031 -8.804688 18.1875 -9.109375 Z M 18.1875 -9.109375 "/></g></g></g><g fill="#000000" fill-opacity="1"><g transform="translate(121.556889, 163.882593)"><g><path d="M 30.53125 -34.5625 L 30.578125 -34.46875 C 31.503906 -33.65625 32.242188 -32.664062 32.796875 -31.5 C 33.359375 -30.34375 33.671875 -29.097656 33.734375 -27.765625 C 33.816406 -25.816406 33.367188 -24.03125 32.390625 -22.40625 C 31.421875 -20.789062 30.117188 -19.554688 28.484375 -18.703125 C 27.648438 -18.242188 26.738281 -17.9375 25.75 -17.78125 C 25.71875 -17.78125 25.675781 -17.78125 25.625 -17.78125 C 25.570312 -17.78125 25.507812 -17.78125 25.4375 -17.78125 L 25.4375 -17.734375 L 8.25 -16.9375 L 9.015625 -0.421875 L 2.625 -0.125 L 0.96875 -36.03125 L 23.578125 -37.078125 C 24.910156 -37.140625 26.175781 -36.945312 27.375 -36.5 C 28.582031 -36.0625 29.632812 -35.414062 30.53125 -34.5625 Z M 25.546875 -24.359375 L 25.53125 -24.40625 C 26.101562 -24.707031 26.554688 -25.128906 26.890625 -25.671875 C 27.222656 -26.222656 27.378906 -26.828125 27.359375 -27.484375 C 27.328125 -28.066406 27.179688 -28.554688 26.921875 -28.953125 C 26.660156 -29.347656 26.445312 -29.628906 26.28125 -29.796875 C 26.0625 -29.992188 25.757812 -30.179688 25.375 -30.359375 C 24.988281 -30.546875 24.503906 -30.628906 23.921875 -30.609375 L 7.65625 -29.859375 L 7.953125 -23.234375 L 24.21875 -23.984375 C 24.695312 -24.003906 25.140625 -24.128906 25.546875 -24.359375 Z M 25.546875 -24.359375 "/></g></g></g><g fill="#000000" fill-opacity="1"><g transform="translate(157.94094, 162.144002)"><g><path d="M 34.15625 -4.71875 L 37.125 1.84375 L 29.953125 1.484375 L 26.984375 -5.078125 L 19.90625 -20.859375 L 11.28125 -5.859375 L 7.6875 0.375 L 0.515625 0.03125 L 4.109375 -6.21875 L 20.609375 -34.953125 Z M 34.15625 -4.71875 "/></g></g></g><g fill="#000000" fill-opacity="1"><g transform="translate(194.510931, 163.870655)"><g><path d="M 40 -20.375 L 33.625 -21.265625 L 33.65625 -21.46875 C 33.789062 -22.34375 33.582031 -23.148438 33.03125 -23.890625 C 32.476562 -24.640625 31.765625 -25.078125 30.890625 -25.203125 L 16.453125 -27.359375 C 15.578125 -27.484375 14.769531 -27.269531 14.03125 -26.71875 C 13.300781 -26.164062 12.867188 -25.453125 12.734375 -24.578125 L 12.703125 -24.375 C 12.578125 -23.488281 12.785156 -22.675781 13.328125 -21.9375 C 13.867188 -21.195312 14.578125 -20.765625 15.453125 -20.640625 L 28.25 -18.734375 C 29.914062 -18.484375 31.410156 -17.925781 32.734375 -17.0625 C 34.066406 -16.195312 35.160156 -15.128906 36.015625 -13.859375 C 36.078125 -13.773438 36.128906 -13.6875 36.171875 -13.59375 C 36.222656 -13.5 36.273438 -13.410156 36.328125 -13.328125 C 36.984375 -12.265625 37.445312 -11.09375 37.71875 -9.8125 C 38 -8.53125 38.039062 -7.207031 37.84375 -5.84375 C 37.53125 -3.78125 36.738281 -1.976562 35.46875 -0.4375 C 34.195312 1.101562 32.640625 2.253906 30.796875 3.015625 C 28.953125 3.785156 26.992188 4.015625 24.921875 3.703125 L 13.8125 2.046875 C 11.738281 1.742188 9.929688 0.960938 8.390625 -0.296875 C 6.859375 -1.566406 5.707031 -3.125 4.9375 -4.96875 C 4.175781 -6.8125 3.953125 -8.765625 4.265625 -10.828125 L 10.609375 -9.890625 C 10.398438 -8.546875 10.695312 -7.328125 11.5 -6.234375 C 12.3125 -5.148438 13.394531 -4.507812 14.75 -4.3125 L 25.859375 -2.65625 C 27.222656 -2.457031 28.457031 -2.757812 29.5625 -3.5625 C 30.664062 -4.363281 31.320312 -5.4375 31.53125 -6.78125 C 31.726562 -8.144531 31.414062 -9.375 30.59375 -10.46875 C 29.769531 -11.5625 28.675781 -12.207031 27.3125 -12.40625 L 14.515625 -14.3125 C 13.234375 -14.5 12.0625 -14.910156 11 -15.546875 C 9.9375 -16.191406 9.03125 -17.003906 8.28125 -17.984375 C 7.90625 -18.515625 7.570312 -19.078125 7.28125 -19.671875 C 6.40625 -21.429688 6.117188 -23.328125 6.421875 -25.359375 L 6.453125 -25.5625 C 6.710938 -27.320312 7.378906 -28.867188 8.453125 -30.203125 C 9.535156 -31.535156 10.859375 -32.523438 12.421875 -33.171875 C 13.984375 -33.816406 15.644531 -34.007812 17.40625 -33.75 L 31.84375 -31.59375 C 33.59375 -31.332031 35.132812 -30.664062 36.46875 -29.59375 C 37.800781 -28.519531 38.789062 -27.1875 39.4375 -25.59375 C 40.09375 -24.007812 40.289062 -22.335938 40.03125 -20.578125 Z M 40 -20.375 "/></g></g></g><g fill="#000000" fill-opacity="1"><g transform="translate(232.133725, 169.405448)"><g><path d="M 41.828125 -16.28125 L 35.578125 -17.8125 L 35.625 -18.015625 C 35.84375 -18.867188 35.71875 -19.691406 35.25 -20.484375 C 34.78125 -21.273438 34.117188 -21.78125 33.265625 -22 L 19.109375 -25.578125 C 18.253906 -25.796875 17.429688 -25.664062 16.640625 -25.1875 C 15.847656 -24.707031 15.34375 -24.039062 15.125 -23.1875 L 15.078125 -22.984375 C 14.859375 -22.117188 14.984375 -21.289062 15.453125 -20.5 C 15.921875 -19.71875 16.582031 -19.21875 17.4375 -19 L 29.984375 -15.828125 C 31.609375 -15.421875 33.035156 -14.71875 34.265625 -13.71875 C 35.503906 -12.71875 36.488281 -11.546875 37.21875 -10.203125 C 37.257812 -10.109375 37.300781 -10.015625 37.34375 -9.921875 C 37.394531 -9.828125 37.441406 -9.738281 37.484375 -9.65625 C 38.023438 -8.53125 38.367188 -7.3125 38.515625 -6 C 38.660156 -4.695312 38.566406 -3.378906 38.234375 -2.046875 C 37.722656 -0.0234375 36.753906 1.6875 35.328125 3.09375 C 33.910156 4.5 32.25 5.488281 30.34375 6.0625 C 28.4375 6.644531 26.46875 6.679688 24.4375 6.171875 L 13.546875 3.421875 C 11.515625 2.910156 9.796875 1.945312 8.390625 0.53125 C 6.984375 -0.882812 5.992188 -2.546875 5.421875 -4.453125 C 4.847656 -6.367188 4.816406 -8.335938 5.328125 -10.359375 L 11.53125 -8.796875 C 11.195312 -7.472656 11.378906 -6.222656 12.078125 -5.046875 C 12.773438 -3.878906 13.789062 -3.128906 15.125 -2.796875 L 26.015625 -0.046875 C 27.347656 0.285156 28.601562 0.109375 29.78125 -0.578125 C 30.957031 -1.273438 31.710938 -2.285156 32.046875 -3.609375 C 32.378906 -4.941406 32.191406 -6.191406 31.484375 -7.359375 C 30.773438 -8.523438 29.753906 -9.273438 28.421875 -9.609375 L 15.875 -12.78125 C 14.613281 -13.09375 13.488281 -13.617188 12.5 -14.359375 C 11.507812 -15.109375 10.6875 -16.007812 10.03125 -17.0625 C 9.71875 -17.644531 9.445312 -18.238281 9.21875 -18.84375 C 8.519531 -20.6875 8.421875 -22.601562 8.921875 -24.59375 L 8.96875 -24.796875 C 9.40625 -26.523438 10.222656 -27.992188 11.421875 -29.203125 C 12.628906 -30.421875 14.039062 -31.273438 15.65625 -31.765625 C 17.28125 -32.253906 18.957031 -32.28125 20.6875 -31.84375 L 34.84375 -28.265625 C 36.5625 -27.835938 38.023438 -27.019531 39.234375 -25.8125 C 40.453125 -24.601562 41.304688 -23.175781 41.796875 -21.53125 C 42.285156 -19.894531 42.3125 -18.210938 41.875 -16.484375 Z M 41.828125 -16.28125 "/></g></g></g></svg>